<?xml version="1.0" encoding="UTF-8" standalone="no"?><!DOCTYPE svg PUBLIC "-//W3C//DTD SVG 1.1//EN" "http://www.w3.org/Graphics/SVG/1.1/DTD/svg11.dtd"><svg width="100%" height="100%" viewBox="0 0 434 430" version="1.1" xmlns="http://www.w3.org/2000/svg" xmlns:xlink="http://www.w3.org/1999/xlink" xml:space="preserve" xmlns:serif="http://www.serif.com/" style="fill-rule:evenodd;clip-rule:evenodd;stroke-linejoin:round;stroke-miterlimit:2;"><g><path d="M433.285,107.451c0,-59.304 -48.147,-107.451 -107.451,-107.451l-218.383,0c-59.304,0 -107.451,48.147 -107.451,107.451l0,214.903c0,59.304 48.147,107.451 107.451,107.451l218.383,0c59.304,0 107.451,-48.147 107.451,-107.451l0,-214.903Z" style="fill:#041a57;"/><path d="M391.739,115.539l-0,28.51l-88.381,-0c0,-0 -48.823,1.425 -48.823,53.099c0,51.674 47.042,51.674 47.042,51.674l71.63,0l0,-41.624l-72.811,-0l0,-23.903l101.085,0l-0,93.41l-100.07,-0c0,-0 -71.011,2.239 -75.551,-80.683c-4.276,-78.117 77.262,-80.398 76.121,-80.398l89.758,-0.085Z" style="fill:#fff;"/><path d="M21.372,277.449l31.822,-0l73.555,-124.166l35.637,59.585l-49.322,0.285l-13.97,23.093l77.262,0.571l24.233,40.769l34.497,-0l-92.657,-154.239c0,0 -5.702,-9.693 -15.11,-9.693c-9.408,0 -14.825,11.689 -14.825,11.689l-91.122,152.106Z" style="fill:#fff;"/></g></svg>